<svg width="25" height="22" viewBox="0 0 25 22" fill="none" xmlns="http://www.w3.org/2000/svg">
<path d="M15.0652 0H11.837V2.4212H15.0652V0Z" fill="white"/>
<path d="M5.56874 16.9484C4.38203 16.9484 3.41656 17.9139 3.41656 19.1006C3.41656 20.2873 4.38203 21.2527 5.56874 21.2527C6.75545 21.2527 7.72092 20.2873 7.72092 19.1006C7.72092 17.9139 6.75545 16.9484 5.56874 16.9484Z" fill="white"/>
<path d="M18.9122 16.9484C17.7255 16.9484 16.7601 17.9139 16.7601 19.1006C16.7601 20.2873 17.7255 21.2527 18.9122 21.2527C20.099 21.2527 21.0644 20.2873 21.0644 19.1006C21.0644 17.9139 20.099 16.9484 18.9122 16.9484Z" fill="white"/>
<path d="M19.1005 4.03531H16.6793V10.0076H23.8404L19.1005 4.03531Z" fill="white"/>
<path d="M15.0652 11.6217V4.03531H0V18.2935H1.89042C2.26097 16.6034 3.76905 15.3342 5.56876 15.3342C7.36846 15.3342 8.87649 16.6034 9.2471 18.2935H15.234C15.6045 16.6034 17.1126 15.3342 18.9123 15.3342C20.712 15.3342 22.22 16.6034 22.5906 18.2935H24.481V11.6217H15.0652ZM10.8416 10.438H8.33969V12.9399H6.72555V10.438H4.22365V8.8239H6.72555V6.322H8.33969V8.8239H10.8416V10.438Z" fill="white"/>
</svg>
