<svg width="20" height="18" viewBox="0 0 20 18" fill="none" xmlns="http://www.w3.org/2000/svg">
<path d="M12.3077 0H9.67035V1.97802H12.3077V0Z" fill="#2FADE2"/>
<path d="M4.54944 13.8462C3.57995 13.8462 2.7912 14.6349 2.7912 15.6044C2.7912 16.5739 3.57995 17.3626 4.54944 17.3626C5.51893 17.3626 6.30768 16.5739 6.30768 15.6044C6.30768 14.6349 5.51893 13.8462 4.54944 13.8462Z" fill="#2FADE2"/>
<path d="M15.4506 13.8462C14.4811 13.8462 13.6923 14.6349 13.6923 15.6044C13.6923 16.5739 14.4811 17.3626 15.4506 17.3626C16.4201 17.3626 17.2088 16.5739 17.2088 15.6044C17.2088 14.6349 16.4201 13.8462 15.4506 13.8462Z" fill="#2FADE2"/>
<path d="M15.6044 3.2967H13.6263V8.17582H19.4767L15.6044 3.2967Z" fill="#2FADE2"/>
<path d="M12.3077 9.4945V3.2967H0V14.9451H1.5444C1.84712 13.5643 3.07916 12.5275 4.54945 12.5275C6.01974 12.5275 7.25174 13.5643 7.55451 14.9451H12.4455C12.7483 13.5643 13.9803 12.5275 15.4506 12.5275C16.9209 12.5275 18.1529 13.5643 18.4556 14.9451H20V9.4945H12.3077ZM8.85714 8.52747H6.81319V10.5714H5.49451V8.52747H3.45055V7.20879H5.49451V5.16483H6.81319V7.20879H8.85714V8.52747Z" fill="#2FADE2"/>
</svg>
